# xmcd
#
# Track frame offsets:
#	150
#	18319
#	40344
#	82466
#	97010
#	117458
#	141131
#	154970
#	181566
#	193241
#	208833
#	222497
#	236045
#	248935
#	262561
#	278059
#	294756
#	310121
#
# Disc length: 4243 seconds
#
# Revision: 1
# Processed by: cddbd v1.5.2PL0 Copyright (c) Steve Scherf et al.
# Submitted via: audiograbber 1.83.01
#
DISCID=0b109112
DTITLE=Jeff Pitchell - One For The Fans
DYEAR=2006
DGENRE=Blues
TTITLE0=It's Alright
TTITLE1=Not Guilty
TTITLE2=Texas Flood (live)
TTITLE3=Stained
TTITLE4=Pearly Gates
TTITLE5=Good Time (live)
TTITLE6=Drunk and Lonely (live)
TTITLE7=Do Right Girl
TTITLE8=Pancake Cinnamon Rolls
TTITLE9=Sugarman
TTITLE10=Let Me Down Easy
TTITLE11=Fat Freddy
TTITLE12=Fool's Paradise (live)
TTITLE13=I Love You
TTITLE14=Please Come Home for Christmas
TTITLE15=Your Light
TTITLE16=Stand By Me
TTITLE17=God Bless America (live)
EXTD=
EXTT0=
EXTT1=
EXTT2=
EXTT3=
EXTT4=
EXTT5=
EXTT6=
EXTT7=
EXTT8=
EXTT9=
EXTT10=
EXTT11=
EXTT12=
EXTT13=
EXTT14=
EXTT15=
EXTT16=
EXTT17=
PLAYORDER=
